<?xml version="1.0" encoding="UTF-8"?>
<svg version="1.1" xmlns="http://www.w3.org/2000/svg" width="179" height="208">
<path d="M0 0 C1.25139771 -0.00637985 2.50279541 -0.0127597 3.79211426 -0.01933289 C5.15893515 -0.02086138 6.52575657 -0.02197544 7.89257812 -0.02270508 C9.29357945 -0.02591833 10.69458044 -0.02928245 12.09558105 -0.03279114 C15.03101378 -0.03877734 17.96641707 -0.0406315 20.90185547 -0.04003906 C24.6647581 -0.03993733 28.42747252 -0.05360345 32.19033051 -0.07081127 C35.08307769 -0.08192307 37.97577919 -0.08395855 40.86854553 -0.08342934 C42.25603384 -0.08461016 43.64352329 -0.08903766 45.0309906 -0.0967617 C46.96985448 -0.10654692 48.90877354 -0.1024231 50.84765625 -0.09765625 C52.50287292 -0.09979378 52.50287292 -0.09979378 54.19152832 -0.10197449 C56.92382812 0.14526367 56.92382812 0.14526367 59.92382812 2.14526367 C60.58398438 4.40991211 60.58398438 4.40991211 60.98632812 7.25463867 C61.14157959 8.30723877 61.29683105 9.35983887 61.45678711 10.44433594 C61.61091064 11.58314209 61.76503418 12.72194824 61.92382812 13.89526367 C62.09406494 15.07467529 62.26430176 16.25408691 62.43969727 17.46923828 C62.94917976 21.02603449 63.43992075 24.58490623 63.92382812 28.14526367 C64.05257324 29.0857959 64.18131836 30.02632812 64.31396484 30.99536133 C64.78159831 34.42018308 65.24660242 37.84530887 65.70239258 41.27172852 C67.57934902 55.2571423 69.78312411 69.19829118 71.92382812 83.14526367 C72.045 81.99670898 72.16617188 80.8481543 72.29101562 79.66479492 C73.17395583 71.43557884 74.16910162 63.26316487 75.49023438 55.09057617 C76.03135386 51.41486364 76.33038222 47.73962841 76.62939453 44.0378418 C76.91846918 41.19791108 77.35818027 38.43185015 77.85742188 35.62182617 C79.15220736 28.0162773 80.00183155 20.37366406 80.8671875 12.7097168 C80.99029297 11.6455957 81.11339844 10.58147461 81.24023438 9.48510742 C81.34795166 8.52983154 81.45566895 7.57455566 81.56665039 6.59033203 C81.92382812 4.14526367 81.92382812 4.14526367 82.92382812 1.14526367 C86.18521446 0.05813489 88.56797335 0.01834359 92 0.01586914 C93.87709656 0.0111409 93.87709656 0.0111409 95.79211426 0.00631714 C97.1589359 0.00810704 98.52575723 0.01015802 99.89257812 0.01245117 C101.29357927 0.01177753 102.69458031 0.010807 104.09558105 0.009552 C107.03101719 0.00807787 109.96642288 0.01022045 112.90185547 0.01489258 C116.66470513 0.0205897 120.42748346 0.01730918 124.19033051 0.01132011 C127.08307432 0.00770683 129.97580121 0.00885663 132.86854553 0.01144791 C134.25602731 0.01211505 135.64351062 0.01129617 137.0309906 0.00896835 C138.96987885 0.00642932 140.90877249 0.01098526 142.84765625 0.01586914 C144.50287292 0.01706253 144.50287292 0.01706253 146.19152832 0.01828003 C148.92382812 0.14526367 148.92382812 0.14526367 151.92382812 1.14526367 C151.94715398 26.81360111 151.96480575 52.48193697 151.9756403 78.15028286 C151.98080392 90.06764009 151.98784788 101.98499074 151.99926758 113.90234375 C152.00921239 124.28545688 152.01568107 134.66856525 152.01791662 145.05168301 C152.01922407 150.55310693 152.0223121 156.05451724 152.02955818 161.55593681 C152.0363152 166.72765352 152.03844574 171.89935092 152.03693581 177.07107162 C152.03721228 178.97508283 152.03921928 180.87909463 152.0430336 182.78310204 C152.04796588 185.37080133 152.04682815 187.95842652 152.04408264 190.54612732 C152.0484519 191.69153328 152.0484519 191.69153328 152.05290943 192.86007875 C152.03794934 198.03114246 152.03794934 198.03114246 150.92382812 199.14526367 C149.51707593 199.24331218 148.10547677 199.27324554 146.6953125 199.2746582 C145.34886658 199.27938644 145.34886658 199.27938644 143.97521973 199.28421021 C142.999198 199.28218597 142.02317627 199.28016174 141.01757812 199.27807617 C139.52502502 199.27951126 139.52502502 199.27951126 138.00231934 199.28097534 C135.89396095 199.28165727 133.78560047 199.27980211 131.67724609 199.27563477 C128.43777785 199.2702867 125.19844827 199.27557935 121.95898438 199.28198242 C119.91601532 199.28132164 117.87304635 199.28004048 115.83007812 199.27807617 C114.36604553 199.28111252 114.36604553 199.28111252 112.87243652 199.28421021 C111.97480591 199.28105804 111.07717529 199.27790588 110.15234375 199.2746582 C109.3581604 199.27386261 108.56397705 199.27306702 107.74572754 199.27224731 C105.92382812 199.14526367 105.92382812 199.14526367 104.92382812 198.14526367 C104.81627663 196.74160577 104.77702814 195.33263749 104.76560974 193.9249115 C104.75582092 193.0148082 104.7460321 192.1047049 104.73594666 191.16702271 C104.73019119 190.16073822 104.72443573 189.15445374 104.71850586 188.11767578 C104.70860626 187.06414413 104.69870667 186.01061249 104.68850708 184.92515564 C104.65678518 181.42432951 104.63209256 177.92348978 104.60742188 174.42260742 C104.58686157 172.00264625 104.56586536 169.58268874 104.54444885 167.16273499 C104.48913278 160.77915406 104.4397657 154.39554022 104.39160156 148.01190186 C104.34145598 141.50359146 104.28573376 134.99532913 104.23046875 128.48706055 C104.12277062 115.70650289 104.02116251 102.92590424 103.92382812 90.14526367 C103.4533944 93.42906328 102.98349141 96.71293864 102.51367188 99.99682617 C102.38263062 100.91149658 102.25158936 101.82616699 102.11657715 102.76855469 C100.33231658 115.24463245 98.60575573 127.72803108 97.02148438 140.23120117 C95.30901471 153.74262167 93.53076598 167.2396906 91.57098389 180.71765137 C91.34847634 182.2486234 91.12731816 183.77979218 90.90753174 185.31115723 C90.60100087 187.44143315 90.28877709 189.57078983 89.97460938 191.69995117 C89.79583252 192.92182129 89.61705566 194.14369141 89.43286133 195.40258789 C88.92382812 198.14526367 88.92382812 198.14526367 87.92382812 199.14526367 C85.54814293 199.23366038 83.20174139 199.26056672 80.82617188 199.24291992 C79.76288414 199.2407975 79.76288414 199.2407975 78.67811584 199.2386322 C76.405811 199.2330181 74.13360337 199.2204633 71.86132812 199.20776367 C70.32422017 199.20275048 68.78711067 199.19818726 67.25 199.1940918 C63.47457171 199.1830441 59.69921642 199.16577008 55.92382812 199.14526367 C53.93748299 195.75694398 53.4508221 192.73296949 52.99414062 188.85229492 C52.84082275 187.59602295 52.68750488 186.33975098 52.52954102 185.04541016 C52.412332 184.04729813 52.412332 184.04729813 52.29275513 183.02902222 C51.87598363 179.49008839 51.4336847 175.95437699 50.99023438 172.41870117 C50.90118332 171.7066301 50.81213226 170.99455902 50.72038269 170.26091003 C49.94940772 164.17703276 49.0026563 158.13042959 47.98632812 152.08276367 C45.89881367 139.57650221 44.27807861 127.01552242 42.67407227 114.43994141 C42.57273483 113.65093445 42.4713974 112.86192749 42.36698914 112.04901123 C42.17942229 110.58634914 41.99375578 109.12344118 41.81062317 107.66021729 C41.01582121 101.46060597 39.9772017 95.30559275 38.92382812 89.14526367 C38.91959619 89.7060987 38.91536425 90.26693373 38.91100407 90.84476376 C38.80782966 104.47287663 38.69914882 118.10093593 38.58448887 131.72895718 C38.52920868 138.31928735 38.47578068 144.90962191 38.42651367 151.5 C38.37894511 157.85422334 38.32660532 164.20839076 38.27088737 170.56254768 C38.25042968 172.99274372 38.2317224 175.42295512 38.2147541 177.85317802 C38.19078542 181.2441351 38.16072092 184.63498533 38.12915039 188.02587891 C38.12339493 189.04151413 38.11763947 190.05714935 38.11170959 191.1035614 C38.10192078 192.02207886 38.09213196 192.94059631 38.08204651 193.88694763 C38.07559396 194.68982932 38.06914141 195.49271101 38.06249332 196.31992245 C37.92382812 198.14526367 37.92382812 198.14526367 36.92382812 199.14526367 C35.51707593 199.24331218 34.10547677 199.27324554 32.6953125 199.2746582 C31.34886658 199.27938644 31.34886658 199.27938644 29.97521973 199.28421021 C28.51118713 199.28117386 28.51118713 199.28117386 27.01757812 199.27807617 C25.52502502 199.27951126 25.52502502 199.27951126 24.00231934 199.28097534 C21.89396095 199.28165727 19.78560047 199.27980211 17.67724609 199.27563477 C14.43777785 199.2702867 11.19844827 199.27557935 7.95898438 199.28198242 C5.91601532 199.28132164 3.87304635 199.28004048 1.83007812 199.27807617 C0.8540564 199.2801004 -0.12196533 199.28212463 -1.12756348 199.28421021 C-2.02519409 199.28105804 -2.92282471 199.27790588 -3.84765625 199.2746582 C-4.6418396 199.27386261 -5.43602295 199.27306702 -6.25427246 199.27224731 C-8.07617188 199.14526367 -8.07617188 199.14526367 -9.07617188 198.14526367 C-9.17392661 195.60330179 -9.20612465 193.08853406 -9.19642639 190.54612732 C-9.19728082 189.74081308 -9.19813524 188.93549884 -9.19901556 188.10578114 C-9.20067282 185.38641664 -9.19514499 182.66711279 -9.18969727 179.94775391 C-9.18941542 178.0067444 -9.18957307 176.06573479 -9.19013977 174.12472534 C-9.19042785 168.83775383 -9.18452943 163.5508048 -9.17756581 158.26383853 C-9.17133402 152.74515314 -9.17072862 147.22646729 -9.16954041 141.70777893 C-9.16642657 131.24947209 -9.15821249 120.79117565 -9.14819092 110.3328734 C-9.13703139 98.42981327 -9.13151973 86.52675264 -9.12649548 74.62368858 C-9.11602992 50.1308745 -9.09842948 25.63806967 -9.07617188 1.14526367 C-5.81930253 0.05964056 -3.42738211 0.01183938 0 0 Z " fill="#FB0A0A" transform="translate(18.076171875,2.854736328125)"/>
<path d="M0 0 C0.33 0 0.66 0 1 0 C0.51297245 12.8138628 -1.01756666 25.33517892 -3 38 C-3.33 38 -3.66 38 -4 38 C-4.14643105 30.6459071 -3.97413108 23.29996994 -3 16 C-2.67 15.67 -2.34 15.34 -2 15 C-1.60056824 12.47804033 -1.24920152 9.97036344 -0.9375 7.4375 C-0.84662109 6.72658203 -0.75574219 6.01566406 -0.66210938 5.28320312 C-0.43760497 3.52261597 -0.21831603 1.76136522 0 0 Z " fill="#FDA1A1" transform="translate(115,129)"/>
</svg>
