<?xml version="1.0" encoding="UTF-8"?>
<svg version="1.1" xmlns="http://www.w3.org/2000/svg" width="235" height="250">
<path d="M0 0 C0.67822311 -0.00335861 1.35644623 -0.00671722 2.05522156 -0.01017761 C4.30253926 -0.01969504 6.54978253 -0.02163109 8.79711914 -0.02270508 C10.35649141 -0.02591703 11.91586336 -0.02928105 13.47523499 -0.03279114 C16.74619241 -0.03878433 20.01712341 -0.04063084 23.28808594 -0.04003906 C27.48259558 -0.03993741 31.67693607 -0.05359194 35.8714056 -0.07081127 C39.09270509 -0.08192119 42.31396354 -0.08395859 45.53528023 -0.08342934 C47.0818598 -0.08461089 48.62844038 -0.08904245 50.17500114 -0.0967617 C52.3368406 -0.10654173 54.49831105 -0.10369166 56.66015625 -0.09765625 C57.89100449 -0.09908127 59.12185272 -0.10050629 60.38999939 -0.10197449 C63.39477539 0.14526367 63.39477539 0.14526367 66.39477539 2.14526367 C67.11499023 3.92260742 67.11499023 3.92260742 67.60571289 6.08276367 C67.79907227 6.89745117 67.99243164 7.71213867 68.19165039 8.55151367 C68.38243164 9.40745117 68.57321289 10.26338867 68.76977539 11.14526367 C70.22177148 17.4440636 71.81176445 23.68111762 73.57836914 29.89916992 C75.92200251 38.19802294 78.02583625 46.55140378 80.09399414 54.92260742 C80.25556755 55.57555408 80.41714096 56.22850075 80.58361053 56.90123367 C82.09842089 63.02364995 83.60808098 69.14732391 85.10986328 75.27294922 C85.9405589 78.66008565 86.77695915 82.04577062 87.61698341 85.43060493 C88.08548985 87.32570769 88.54752827 89.2224057 89.00944519 91.11912537 C89.29346695 92.26204544 89.57748871 93.40496552 89.87011719 94.58251953 C90.11706833 95.58745956 90.36401947 96.5923996 90.61845398 97.62779236 C91.32830113 100.35417257 91.32830113 100.35417257 93.39477539 103.14526367 C93.67675781 102.00686035 93.95874023 100.86845703 94.24926758 99.69555664 C95.31285001 95.40456942 96.37972379 91.11440583 97.44750977 86.82446289 C97.90606702 84.98027919 98.36377374 83.13588376 98.82055664 81.29125977 C103.10348807 63.99986335 103.10348807 63.99986335 105.34008789 56.39135742 C107.18406764 50.07367377 108.77308451 43.7048602 110.34008789 37.31323242 C110.72777344 35.73532928 110.72777344 35.73532928 111.12329102 34.12554932 C112.19961749 29.73810708 113.27341117 25.3501021 114.33666992 20.95947266 C115.12216175 17.72138534 115.91778238 14.48592792 116.71508789 11.25073242 C116.95470245 10.24987106 117.19431702 9.2490097 117.44119263 8.21781921 C117.66837982 7.30208633 117.89556702 6.38635345 118.12963867 5.44287109 C118.32631134 4.63460373 118.52298401 3.82633636 118.72561646 2.99357605 C119.39477539 1.14526367 119.39477539 1.14526367 121.39477539 0.14526367 C123.63071158 0.04811098 125.86962061 0.01729265 128.10766602 0.01586914 C128.79724899 0.01411682 129.48683197 0.0123645 130.1973114 0.01055908 C132.48190816 0.00614967 134.76642781 0.00907535 137.05102539 0.01245117 C138.63521337 0.01177787 140.21940124 0.01080763 141.80358887 0.009552 C145.1258238 0.00807627 148.44803186 0.01022561 151.77026367 0.01489258 C156.03432605 0.0205898 160.29832549 0.01731013 164.56238556 0.01132011 C167.83425371 0.00771116 171.10610687 0.00885463 174.37797546 0.01144791 C175.95049548 0.01211625 177.52301684 0.01129197 179.09553528 0.00896835 C181.29102191 0.00643637 183.48640581 0.01029015 185.68188477 0.01586914 C186.93271851 0.01666473 188.18355225 0.01746033 189.47229004 0.01828003 C192.39477539 0.14526367 192.39477539 0.14526367 194.39477539 1.14526367 C194.39477539 60.21526367 194.39477539 119.28526367 194.39477539 180.14526367 C192.11090736 181.28719769 190.80670447 181.28329705 188.26806641 181.30639648 C187.41700821 181.31600403 186.56595001 181.32561157 185.68910217 181.33551025 C184.30784401 181.34188507 184.30784401 181.34188507 182.89868164 181.34838867 C181.95419662 181.35408875 181.00971161 181.35978882 180.03660583 181.36566162 C178.0367851 181.3751166 176.03694875 181.38164757 174.03710938 181.38549805 C170.97311362 181.39521345 167.90978577 181.42623611 164.84594727 181.45776367 C162.90519605 181.46429262 160.96444003 181.46954352 159.02368164 181.47338867 C158.1048671 181.48573547 157.18605255 181.49808228 156.23939514 181.51080322 C155.38518478 181.50780212 154.53097443 181.50480103 153.65087891 181.50170898 C152.5240847 181.50717743 152.5240847 181.50717743 151.37452698 181.51275635 C148.76918476 181.02913801 148.01863757 180.22215063 146.39477539 178.14526367 C146.0256319 175.87080097 146.0256319 175.87080097 146.03401184 173.15290833 C146.02782585 171.60693214 146.02782585 171.60693214 146.02151489 170.02972412 C146.03230072 168.89971985 146.04308655 167.76971558 146.05419922 166.60546875 C146.05376114 165.41509506 146.05332306 164.22472137 146.0528717 162.99827576 C146.0546048 159.73394084 146.06965992 156.46999071 146.09059358 153.20573258 C146.10933539 149.79445455 146.11110884 146.38316911 146.1146698 142.97184753 C146.12399764 136.51200195 146.1486213 130.05230851 146.17871827 123.59252995 C146.21223939 116.23832917 146.22874251 108.88412115 146.24380457 101.529863 C146.2751703 86.40157842 146.32794504 71.27343626 146.39477539 56.14526367 C144.0952225 64.05926775 141.86328564 71.96978384 139.95727539 79.98901367 C139.75046143 80.84603882 139.54364746 81.70306396 139.33056641 82.58605957 C138.68252422 85.2718018 138.03814363 87.95839827 137.39477539 90.64526367 C134.89562272 101.08234527 132.36999826 111.47666931 129.35522461 121.77954102 C127.75715227 127.37969996 126.35901118 133.02930704 124.95932007 138.68154907 C124.4444223 140.7596378 123.92534426 142.83665229 123.40576172 144.91357422 C121.83945862 151.19252253 120.30257224 157.47447535 118.87133789 163.78588867 C118.64953857 164.7571167 118.42773926 165.72834473 118.19921875 166.72900391 C117.79946432 168.49713025 117.40904885 170.26740446 117.02978516 172.04003906 C115.51439009 178.74648314 115.51439009 178.74648314 112.39477539 181.14526367 C109.40509826 181.41928769 106.62822012 181.51775697 103.64086914 181.47338867 C102.78421158 181.4715155 101.92755402 181.46964233 101.04493713 181.4677124 C99.23515935 181.46099276 97.42539606 181.44707997 95.61572266 181.42651367 C92.83946296 181.39534437 90.06377089 181.38554123 87.28735352 181.37963867 C85.53018511 181.37046918 83.77302249 181.36009358 82.01586914 181.34838867 C81.18252548 181.34413879 80.34918182 181.33988892 79.49058533 181.33551025 C73.6291843 181.26246813 73.6291843 181.26246813 71.39477539 180.14526367 C70.64085388 178.24627686 70.64085388 178.24627686 69.94335938 175.76928711 C69.68634247 174.86078003 69.42932556 173.95227295 69.16452026 173.01623535 C67.92955019 168.41008046 66.75507477 163.79199365 65.61743164 159.16088867 C65.36481064 158.14283142 65.11218964 157.12477417 64.85191345 156.0758667 C63.78388235 151.77144202 62.72147578 147.46563469 61.65869141 143.15991211 C59.00543764 132.42276822 56.33981493 121.71644896 53.22851562 111.10180664 C51.9224622 106.47038439 50.90554372 101.78578144 49.89477539 97.08276367 C48.57265132 91.09072848 47.20601001 85.18175489 45.33227539 79.33276367 C42.94809733 71.71877569 41.22217513 63.91171256 39.39477539 56.14526367 C39.06477539 97.06526367 38.73477539 137.98526367 38.39477539 180.14526367 C36.09839889 181.29345192 34.80479809 181.27196271 32.25219727 181.2746582 C31.39791138 181.27781036 30.54362549 181.28096252 29.66345215 181.28421021 C28.73947632 181.28218597 27.81550049 181.28016174 26.86352539 181.27807617 C25.9166687 181.2790329 24.96981201 181.27998962 23.9942627 181.28097534 C21.9902337 181.28165653 19.9862025 181.27980647 17.98217773 181.27563477 C14.90742049 181.27028567 11.83280932 181.27558182 8.75805664 181.28198242 C6.8140459 181.28132163 4.87003525 181.28004044 2.92602539 181.27807617 C1.54006165 181.28111252 1.54006165 181.28111252 0.12609863 181.28421021 C-0.72818726 181.28105804 -1.58247314 181.27790588 -2.46264648 181.2746582 C-3.21606323 181.27386261 -3.96947998 181.27306702 -4.74572754 181.27224731 C-6.60522461 181.14526367 -6.60522461 181.14526367 -8.60522461 180.14526367 C-8.60522461 121.07526367 -8.60522461 62.00526367 -8.60522461 1.14526367 C-5.72072224 -0.29698751 -3.22313235 0.00998813 0 0 Z " fill="#FB0101" transform="translate(25.605224609375,39.854736328125)"/>
</svg>
